<svg id="Layer_1" data-name="Layer 1" xmlns="http://www.w3.org/2000/svg" viewBox="0 0 112.06 65.31"><defs><style>.cls-1{fill:#deaf5d;}</style></defs><title>Bone_Idol_logo</title><path class="cls-1" d="M53.66,40a.52.52,0,0,0-.61-.24l-.11,0v0l-.15,0a1.09,1.09,0,0,0-.73.85,1.32,1.32,0,0,0,.45,1.23,1,1,0,0,0,.65.24,1.35,1.35,0,0,0,.43-.08,1.81,1.81,0,0,0,.75-1h0a1.23,1.23,0,0,0-.46-1A.27.27,0,0,0,53.66,40ZM53,40a1.59,1.59,0,0,1,.18.31l0,0C53,40.15,53,40.05,53,40Z" transform="translate(-0.6 -2.64)"/><path class="cls-1" d="M60.35,42.09a1.26,1.26,0,0,0,.81-1A1,1,0,0,0,60.75,40a1,1,0,0,0-1.42.19,1.13,1.13,0,0,0,.08,1.58,1,1,0,0,0,.7.34A.67.67,0,0,0,60.35,42.09Z" transform="translate(-0.6 -2.64)"/><path class="cls-1" d="M67.14,42.12a1.51,1.51,0,0,0,.4,0,1.09,1.09,0,0,0,.84-1.27,1.15,1.15,0,0,0-1.27-1h0a1,1,0,0,0-.93.57,1.31,1.31,0,0,0,.17,1.35A1,1,0,0,0,67.14,42.12Z" transform="translate(-0.6 -2.64)"/><path class="cls-1" d="M71.8,40.87c0-.37,0-.69,0-.88l0-.22a2.06,2.06,0,0,0,0-1,1.29,1.29,0,0,0-.38-.4l-.18-.16a4.07,4.07,0,0,1,.05-.87c0-.14,0-.27,0-.36a9.62,9.62,0,0,0,0-1.31A6,6,0,0,1,71.34,34a7.23,7.23,0,0,0,.12-1.21c0-.28,0-.54.05-.68l0-.27c.06-.39.13-.88.16-1.34a9.17,9.17,0,0,0-.13-1.76c0-.25-.07-.51-.09-.78s0-.41,0-.61a4.87,4.87,0,0,0-.28-1.66,10.42,10.42,0,0,0-2.34-3.53c-.71-.67-2.5-2.16-3.79-1.74-1.12-1-3.71.06-5.12.76a4.19,4.19,0,0,0,.26-3,3.09,3.09,0,0,0-1.76-2.09A1.71,1.71,0,0,0,58,16a1.08,1.08,0,0,1-.58-.18c-.21-.18-.2-.22-.17-.44a2.68,2.68,0,0,0,0-.4v-.5c0-.11,0-.22,0-.23h.2c.14,0,.34,0,.61,0h.21l-.11-.18a1.42,1.42,0,0,1-.13-.33s0,0,0,0a1.38,1.38,0,0,1,.14.24.73.73,0,0,0,.22.3.35.35,0,0,0,.37,0,.37.37,0,0,0,.12-.33,1,1,0,0,0,.74.44h0a.67.67,0,0,0,.62-.42.78.78,0,0,0-.15-.79.58.58,0,0,0-.61-.22c-.26.06-.25.31-.25.45s0,.24-.11.25l-.26,0,0-.19a1.52,1.52,0,0,1,0-.31l.08-.18h-.41a4.37,4.37,0,0,1-1,0l-.19,0a1.44,1.44,0,0,0,0-.35,13.78,13.78,0,0,1-.09-2.18,5,5,0,0,0,.85.74,3.94,3.94,0,0,1,.92.85l0,.06H59c.34,0,.55-.08.65-.25a.72.72,0,0,0,0-.68l.22,0L59.54,11a.61.61,0,0,1,0-.12c-.06-.12-.12-.23-.18-.36a5.36,5.36,0,0,1-.6-1.7c-.06-.38.09-.46.42-.64a2.79,2.79,0,0,0,.58-.36c.12-.1.37-.25.62-.41.72-.43,1.19-.74,1.22-1A.49.49,0,0,0,61.42,6c-.29-.28-1-.21-1.57-.15a4.37,4.37,0,0,1-.6,0,2.12,2.12,0,0,0-1.46.27l-.08,0a3.07,3.07,0,0,1,0-.34,1.68,1.68,0,0,0,0-.47,2.81,2.81,0,0,0-.47-.93,5.35,5.35,0,0,0-.2-1.38c-.2-.33-.39-.48-.6-.45-.38.05-.57.72-.75,1.47,0,.11-.05.21-.07.27a4.58,4.58,0,0,0-.14.56c-.1.51-.2,1-.58,1.12A4.43,4.43,0,0,1,53.49,6a7.1,7.1,0,0,0-1-.12h-.13c-.27,0-.6,0-.76.21a.66.66,0,0,0,0,.59c.11.29.56.44,1,.57A3.15,3.15,0,0,1,53,7.4l.1.06c.44.27,1.27.75,1.33,1.2,0,.08-.09.22-.17.35s-.39.6-.09.88c.06.06.13,0,.25,0s.25-.05.3,0a.43.43,0,0,1,.12.42.25.25,0,0,1-.28.18h-.06a.36.36,0,0,0-.08-.2.4.4,0,0,0-.3-.08c-.24,0-.28.32-.31.5v0a.7.7,0,0,0-.47.57.66.66,0,0,0,.31.76.63.63,0,0,0,.22.05c.29,0,.5-.27.68-.49a1.44,1.44,0,0,1,.32-.33l.78-.52,0,0a1.41,1.41,0,0,0,.42-.26c0,.18,0,.37-.06.56a6.25,6.25,0,0,0-.08,1.38,3.36,3.36,0,0,0,.07.38c0,.19,0,.19-.14.27a4.68,4.68,0,0,1-1.2-.06l-.24,0h-.05c-.42,0-1.13-.11-1.44.24a.69.69,0,0,0-.12.64.67.67,0,0,0,.66.51.68.68,0,0,0,.61-.3c.44.17.86.29,1.07.1a.42.42,0,0,0,.09-.14.18.18,0,0,0,.08.09c.11.08.24,0,.36,0a.42.42,0,0,1,.39,0,4,4,0,0,1-.1.5,2,2,0,0,0,0,1.08,2,2,0,0,0-1.25.47.57.57,0,0,0-.17.39c0,.13,0,.18-.1.2s0-.07,0-.1,0-.06,0-.09l0-.17-.15.1a3.44,3.44,0,0,0-1.32,2l0,.13.13,0h.05c-.1,0-.17.1-.24.25a2.19,2.19,0,0,0,.07,1.44l.07.22.15-.17a.59.59,0,0,1,.16-.12c0,.08,0,.16,0,.23a2.76,2.76,0,0,0,.09.71.55.55,0,0,0-.37,0l-.12.05a.86.86,0,0,0-.2-.57c-.69-.59-2.18-.61-3.08-.62h-.11a7,7,0,0,0-5.79,2.91,11.36,11.36,0,0,0-2,5.26c0,.09,0,.19-.06.29-.09.32-.2.74.14.95l.08,0h0l.07-.15a2.62,2.62,0,0,1,.78-.08l.06,0v-.13l.07.11,0,0,.07-.05v0a4.49,4.49,0,0,0,.28-1.65v-.1h0a1.34,1.34,0,0,0,.24-.78,2,2,0,0,1,0-.32,9.8,9.8,0,0,1,1.43-2.83A7,7,0,0,1,49,21.5a5.41,5.41,0,0,1,4.58,2,6.55,6.55,0,0,1,1.22,2.43c.08.22.15.44.23.65a6.52,6.52,0,0,1,.21,1.1,4.31,4.31,0,0,0,.39,1.6,3.67,3.67,0,0,0,.09,1.68,6.47,6.47,0,0,1,.13.82c0,.5,0,1,0,1.53a13.73,13.73,0,0,0,0,1.7c0,.21.06.48.12.8A5.59,5.59,0,0,1,56,38.05c-.14.31-.92.22-1.55.14a5,5,0,0,0-.89-.06,26.79,26.79,0,0,1-4,.12,13.75,13.75,0,0,0-1.57,0c-.36,0-.73,0-1.09,0s-.55,0-.82,0a9,9,0,0,1-1.28,0l-.17,0,0,.17a.5.5,0,0,0,0,.13l-.07,0a.72.72,0,0,0-.68-.35l-.43,0a1.61,1.61,0,0,0-.35,0s0-.12-.07-.21a5,5,0,0,1,0-1.86,8.4,8.4,0,0,0,0-1.09,6.41,6.41,0,0,0-.09-.78,5.42,5.42,0,0,1-.08-.8c0-.16,0-.31,0-.46a3.72,3.72,0,0,0,0-.88,7.46,7.46,0,0,1-.1-.81c0-.27-.06-.54-.1-.81a1,1,0,0,1,0-.23c0-.21-.05-.38-.19-.44s-.32,0-.55.16l0,0a.56.56,0,0,0-.36-.34l-.17-.07v.19a.57.57,0,0,1,0,.13.83.83,0,0,0,.14.6.32.32,0,0,0,.19.07.18.18,0,0,1,0,.07,1.25,1.25,0,0,0-.15.25,1.35,1.35,0,0,0,0,.61v.22c0,.57,0,1.15,0,1.7,0,.33,0,.67,0,1s0,.78.06,1.16a12.73,12.73,0,0,1,.05,1.39,4.26,4.26,0,0,0,.06.57,2,2,0,0,1,0,.72,1.16,1.16,0,0,1-.2.4,1.88,1.88,0,0,0-.32.82,6.83,6.83,0,0,0,.06,1.38,4.43,4.43,0,0,1,0,1c0,.14,0,.29,0,.46a1.23,1.23,0,0,0,.34,1,2.82,2.82,0,0,0,2.21.34,18.15,18.15,0,0,1,3,0c.55,0,1.13.07,1.7.08s1.15,0,1.71,0a14.94,14.94,0,0,1,2.86,0l.14,0v-.14c0-.4.08-.63.21-.66s.23,0,.23,0a.42.42,0,0,1,0,.17.45.45,0,0,0,.18.43,2.31,2.31,0,0,0,1.19,0l.15,0,0-.13.07.06a.74.74,0,0,0,.75.22l.19-.07-.14-.14c-.19-.18-.14-.28-.07-.45a.57.57,0,0,0,0-.53c-.06-.11-.22-.16-1.08-.21h-.12c-.35,0-.64,0-.93,0l0,0,0,0a7.86,7.86,0,0,0-.91.07c-.22,0-.75,0-1.37,0a8.64,8.64,0,0,0-3.1.16,3.16,3.16,0,0,0-1.26-.17h-.27a15.63,15.63,0,0,0-2,0l-.42,0a8.31,8.31,0,0,1-1.8.07c-.09-.09-.14-.59.11-2.47v-.12c.39,0,.77,0,1.15,0a6.25,6.25,0,0,1,1.69.08,1.44,1.44,0,0,0-.31.19c-.2.18-.6.68-.45,1,.07.14.24.19.49.15a1.57,1.57,0,0,1,0,.57l0,.1.09.05a1.47,1.47,0,0,0,.73.19,1.24,1.24,0,0,0,.71-.21,1.08,1.08,0,0,0,.39-1.13,1.2,1.2,0,0,0-.77-.93h0a25.91,25.91,0,0,1,2.92,0c.54,0,1.14,0,1.77,0s1.42,0,2.09,0c1.32.06,2.68,0,4,0,1.12,0,2.28-.06,3.42,0,.22,0,.45,0,.68,0a7.72,7.72,0,0,0,1.36,0c.91-.11,1.73,0,2.72-.1a8.77,8.77,0,0,1,1.15,0,10.7,10.7,0,0,0,1.26,0,7.74,7.74,0,0,1,1.06,0l.54,0a4.69,4.69,0,0,1,.94,0l.08,0a1,1,0,0,0-.12.41,9.44,9.44,0,0,0-.06,1.34,3.81,3.81,0,0,0,.12.85,1,1,0,0,1,.05.27,3.47,3.47,0,0,1-.88,0A34.8,34.8,0,0,0,66,42.19H63c-.91,0-1.86,0-2.8,0-.58,0-1.14,0-1.69.07l-1,.07H57c-.26,0-.35,0-.42.07a.26.26,0,0,0,0,.21,1.52,1.52,0,0,1-.16.74l-.07.16h.18c1.21.07,2.43.06,3.61,0,1.39,0,2.83,0,4.23.09a25.25,25.25,0,0,0,3.79,0c.4,0,.81,0,1.21,0a11.6,11.6,0,0,0,2-.11C71.91,43.41,71.85,42,71.8,40.87ZM56.92,6.13a1,1,0,0,1,.2.28l-.07,0A1.29,1.29,0,0,1,56.92,6.13Zm0-.15V6.1h0V6ZM70,36.67a7.18,7.18,0,0,1,0,.79v.37c0,.32,0,.32-.37.33h-.15l-.49,0c-.28,0-.57,0-.85,0H68c-.87,0-1.77,0-2.67-.09h0c-2.16-.15-2.83,0-3.06.09a3.84,3.84,0,0,0-2.15-.11,8.56,8.56,0,0,1-1,.08,7.35,7.35,0,0,0-.94,0h-.7a.55.55,0,0,0-.31.1h0l0-.06a4.58,4.58,0,0,1,.09-.58c0-.11,0-.19,0-.22a43,43,0,0,0,.06-5.56l0-.87a13.12,13.12,0,0,1,.5-3.48c.05-.19.1-.38.14-.58a6.58,6.58,0,0,1,2.45-4.26,5.89,5.89,0,0,1,6.11-.53l.38.22a3.56,3.56,0,0,0,1.07.53,5,5,0,0,0,.67.93,6.77,6.77,0,0,1,.5.65A11.43,11.43,0,0,1,70.22,28V28a9,9,0,0,1,.1,2.85c0,.07,0,.16,0,.26a3.92,3.92,0,0,0,0,1.39,3.36,3.36,0,0,0-.18,1.29,3.08,3.08,0,0,0,.14.63l0,.13A4.68,4.68,0,0,0,70,36.67ZM64.12,21.11A2.33,2.33,0,0,1,64,20.8a.84.84,0,0,1,.2.28Zm-6,1.61-.06,0,0,0Zm.41-1.36Zm0-.16a.36.36,0,0,0-.2.06c-.33.31-.39.36-.36.44l-.07,0c-.11,0-.21,0-.32.1a1,1,0,0,1-.31.15,2.83,2.83,0,0,1-2.85-1.11,3.09,3.09,0,0,1-.26-.95,2.46,2.46,0,0,0-.19-.78A.36.36,0,0,0,54,19a.54.54,0,0,1,.11-.14,2,2,0,0,0,.35-.5,2.22,2.22,0,0,1,.37-.52l.11-.1a3.44,3.44,0,0,1,.79-.62,1.91,1.91,0,0,1,1.5,0,3.06,3.06,0,0,1,1.53,1.68A2.62,2.62,0,0,1,58.48,21.2ZM57.3,23.34a1.42,1.42,0,0,0,.35-.18c.12-.08.18-.13.32-.1a.26.26,0,0,1,.2.3.3.3,0,0,1-.32.28h-.33l.25.21a1,1,0,0,1,.22.22s-.2,0-.31,0l0-.1-.16.1a2.29,2.29,0,0,0-.7,1.42c0,.15-.07.3-.11.42h0l-.22.64a15.81,15.81,0,0,0-1.82-3.82A3,3,0,0,0,57.3,23.34Zm13.63,8.18a1.29,1.29,0,0,1-.13-.31,1,1,0,0,1,.2.28Zm-.16-.46v.13h0v-.13ZM64,20.65v.12h0v-.12ZM58.35,10.16v0Zm0,0a1,1,0,0,1,.2.28l-.07,0A1.53,1.53,0,0,1,58.38,10.18Zm-3.63-.65-.06,0,.05,0Zm-.62-2.22h0C54.08,7.2,54,7.08,54,7A.58.58,0,0,1,54.13,7.31Zm-2,14.3h0c-.05-.11-.09-.22-.14-.34A.61.61,0,0,1,52.13,21.61Zm-9.86,7.31,0,0V29Zm11.49,13.7-.06,0h0l0,0A.22.22,0,0,1,53.76,42.62Zm4-36.25a.35.35,0,0,1,.13.27.13.13,0,0,1,0,.09.57.57,0,0,1-.12-.1.57.57,0,0,1-.06-.32ZM54.61,11.1h-.12s0-.2,0-.31h0A2,2,0,0,1,54.61,11.1ZM52.84,21.52a.34.34,0,0,1,.13.29s0,.05,0,.05-.05,0-.13-.09-.06-.19-.07-.31ZM42.17,30.33s-.05.06-.13.09h0a1.13,1.13,0,0,0,0-.26C42.15,30.25,42.18,30.31,42.17,30.33Zm3.16,10.44h0Z" transform="translate(-0.6 -2.64)"/><path class="cls-1" d="M66.79,66a1.81,1.81,0,0,1-.51-.53A3.57,3.57,0,0,1,66,63.8v-.16c0-.29,0-.62,0-1-.07-1.36-.16-3.05.69-4a2.6,2.6,0,0,0,.64-2.39,1,1,0,0,0-1-.54h-.12a3.63,3.63,0,0,0-1.49.95,1,1,0,0,0,0-.23c-.08-.39-.76-.64-.92-.69a1.87,1.87,0,0,0-2.12,1c-.22.66.08.92.43,1.24l.16.14a3.3,3.3,0,0,1,1.16,3,11.35,11.35,0,0,1-.54,4.33,1.65,1.65,0,0,1-.49.54,1.28,1.28,0,0,0-.58.85.81.81,0,0,0,.23.65,1.74,1.74,0,0,0,1.19.4h.12a6.94,6.94,0,0,0,.77-.1,3.19,3.19,0,0,1,1.21,0h.07a2.47,2.47,0,0,0,1.79-.16.84.84,0,0,0,.32-.62C67.48,66.6,67.13,66.31,66.79,66Zm-2.07-8.63c.16.11.37,0,.55-.11a1.07,1.07,0,0,1,.25-.1.61.61,0,0,1,.55.21.42.42,0,0,1,0,.43.7.7,0,0,1-.26.19,1.17,1.17,0,0,0-.37.28,1.66,1.66,0,0,0-.24,1v.1a10.47,10.47,0,0,0,.06,1.37,11.07,11.07,0,0,1,.07,1.14c0,.49,0,1,0,1.46a2,2,0,0,1-.13.55.73.73,0,0,0-.07.23v.05c0,.08.08.14.15.16s0,.18,0,.28a2.59,2.59,0,0,0,0,1c.1.32.55.92.93,1,.25.33.21.41.21.41s-.73,0-1-.09a3.94,3.94,0,0,0-.83-.13,1.62,1.62,0,0,0-.65.23.93.93,0,0,1-.72.17,1,1,0,0,1-.36-.13h0a.74.74,0,0,1,.2-.2,2.39,2.39,0,0,0,.23-.22,1.67,1.67,0,0,0,.34-.45l.21.1.07-.07a.65.65,0,0,0,.22-.39c0-.05,0-.12.07-.22a10.13,10.13,0,0,0,.47-2.62,14.87,14.87,0,0,0,0-3.06v0c-.14-1.43-.4-1.67-.57-1.72a.33.33,0,0,0-.25,0A1.17,1.17,0,0,0,63,57.4a3.79,3.79,0,0,1,.54-.19,3.52,3.52,0,0,0,.62-.22.25.25,0,0,1,.15,0,.42.42,0,0,0,.31-.05C64.57,57.1,64.58,57.3,64.72,57.39Z" transform="translate(-0.6 -2.64)"/><path class="cls-1" d="M80.62,57.71A7.39,7.39,0,0,0,76,56.31a14.36,14.36,0,0,0-1.75.08c-.44,0-.91.08-1.36.08h-.31a1.94,1.94,0,0,0-1.25.21c-.16.11-.35.27-.32.45s.27.29.54.39a1.55,1.55,0,0,1,.66.36,2.71,2.71,0,0,1,.43,1.72c0,.56,0,1.08,0,1.63v.46c0,.42,0,.86.07,1.32a12.24,12.24,0,0,1,0,2.84.66.66,0,0,1-.21.46c-.12.08-.3,0-.5,0s-.67-.17-.87.25a.29.29,0,0,0,0,.3c.18.34,1,.54,1.08.56h.3l.56,0a6.53,6.53,0,0,1,.75,0,22.22,22.22,0,0,0,3.46,0l.24,0A5.76,5.76,0,0,0,81.4,66c1.14-1,1.54-2.55,1.23-4.6A5.86,5.86,0,0,0,80.62,57.71ZM75.2,64.05c0-.4,0-.8,0-1.2v-.21c0-1.72,0-3.49-.09-5.24a3.15,3.15,0,0,0,.94.12,2.78,2.78,0,0,1,.9.11,5.29,5.29,0,0,1,1.74,1.14A5,5,0,0,1,80.1,63a5.23,5.23,0,0,1-2.34,3.21,2.6,2.6,0,0,1-2.22.25c-.38-.13-.37-.19-.33-.56,0-.13,0-.29,0-.47C75.25,65,75.22,64.49,75.2,64.05Zm-2-6.69a1.61,1.61,0,0,0,.62,0A23.69,23.69,0,0,0,74,61.81l0,.3a23,23,0,0,1,0,4.38.55.55,0,0,1-.36-.15c-.14-.15-.12-.44-.09-.8,0-.17,0-.34,0-.53,0-.51,0-1,0-1.52s0-.72,0-1.08A19.27,19.27,0,0,0,73.17,57.36Z" transform="translate(-0.6 -2.64)"/><path class="cls-1" d="M91.64,55.67h-.13c-2.77,0-4.94,2.3-5.65,4.6A5.3,5.3,0,0,0,86.59,65a6.16,6.16,0,0,0,4.73,2.56h.24a5.93,5.93,0,0,0,4.14-1.82,5.88,5.88,0,0,0-4.06-10.06Zm-1.3,10.81a5.88,5.88,0,0,1-2.88-2,4.43,4.43,0,0,1-.28-5C87.07,62.16,88.08,65.14,90.34,66.48Zm-.74-9.27a2.74,2.74,0,0,1,1-.2,3.43,3.43,0,0,1,2.25.89,5.37,5.37,0,0,1,1.72,2.48,5.41,5.41,0,0,1,.51,2.84c-.17,2-1.32,3-3.07,2.87-2.58-.23-4-4.44-3.9-6.57A2.48,2.48,0,0,1,89.6,57.21Z" transform="translate(-0.6 -2.64)"/><path class="cls-1" d="M112.31,65.15c0-.06,0-.14.06-.23.17-.69.49-2,.12-2.56a.64.64,0,0,0-.45-.3c-.76-.14-1,.78-1.12,1.45a3.22,3.22,0,0,1-.15.55,3.3,3.3,0,0,1-3.41,2.11c-.91,0-2.07-.41-2.33-1.35a8.63,8.63,0,0,1-.13-3c0-.46.06-.93.06-1.38,0-.8-.08-1.61-.16-2.39a25.25,25.25,0,0,1-.15-2.76c0-1.33.42-1.95,1.33-2.15a2.93,2.93,0,0,1,.41-.07c.5-.07.53-.17.58-.92v-.13h-.13c-1-.05-2-.06-2.93-.08-1.22,0-2.49,0-3.75-.11-.14,0-.88,0-1,.34-.08.19,0,.41.27.65A.84.84,0,0,0,100,53a1.12,1.12,0,0,1,.4.06,1.8,1.8,0,0,1,.37.43l.1.14a4.77,4.77,0,0,1,.5,3.32c0,.39-.07.8-.07,1.17,0,1-.07,2-.13,2.9,0,.48-.07,1-.1,1.44,0,.31,0,.65,0,1a6,6,0,0,1,0,1.27c-.12.81-.46.87-1,1a3.18,3.18,0,0,0-.75.21.77.77,0,0,0-.53.61c0,.17.09.43.54.67a3.43,3.43,0,0,0,2,.13,8.72,8.72,0,0,1,2.39,0c.41,0,.83.09,1.26.11a5,5,0,0,0,1.26-.14,4.62,4.62,0,0,1,1.47-.12c.23,0,.46.06.68.1a6.15,6.15,0,0,0,1.16.13h.1a5.24,5.24,0,0,1,.73.07c.3,0,.6.07.88.07a1.35,1.35,0,0,0,.75-.17c.61-.39.49-1,.39-1.63A4.65,4.65,0,0,1,112.31,65.15ZM101.9,63.57c0-.26,0-.52,0-.76,0-.53.07-1.06.12-1.58s.1-1.22.12-1.84v-.32c0-1,0-2,.12-3a5.53,5.53,0,0,0-.2-2.14,2.58,2.58,0,0,0-.52-.79l-.18-.21.78-.06a11.8,11.8,0,0,1,1.45-.06,32.75,32.75,0,0,0-.17,4.3c0,1,0,2-.05,3a25.15,25.15,0,0,0,.05,3.31,3.79,3.79,0,0,0,.2.88,4.25,4.25,0,0,1,.15.59,1.89,1.89,0,0,1,0,.57,1.88,1.88,0,0,0,.08,1.06h-.32a3.51,3.51,0,0,1-.71-.12,3.49,3.49,0,0,0-.93-.11,3.75,3.75,0,0,0-.67.11l-.24.05C101.92,65.85,101.91,64.65,101.9,63.57Z" transform="translate(-0.6 -2.64)"/><path class="cls-1" d="M54.32,63.94a.27.27,0,0,0-.06-.29.5.5,0,0,0-.48-.11.53.53,0,0,0-.38.34h0a2.79,2.79,0,0,1-3.34,2.4c-1.66-.23-1.64-1.51-1.61-3v-.08c0-.08,0-.21,0-.36a2.7,2.7,0,0,1,0-.92c.1-.1.42,0,.65.07a3.21,3.21,0,0,0,.43.1.63.63,0,0,0,.23-.07.37.37,0,0,1,.36,0c.18.09.19.21.21.38a.51.51,0,0,0,.16.41,1,1,0,0,0,.67.18h.12v-.12c0-.45,0-.92.06-1.37,0-.27,0-.55.05-.83,0-.08,0-.19,0-.32.06-.38.14-.81-.07-1a.43.43,0,0,0-.42-.06c-.2.06-.26.29-.32.52a1,1,0,0,1-.14.38c-.21.3-.29.31-.54.33l-.21,0a3.55,3.55,0,0,1-1.1,0l-.07,0a.59.59,0,0,0-.05-.2,4.34,4.34,0,0,1,0-1.73c0-.28.06-.54.07-.76v-.11c0-.27,0-.47.06-.51s.21,0,.44,0h.56c1,0,2,0,2.6.88a2.13,2.13,0,0,1,.29.76c.08.38.16.72.9.72h.16v-.12c0-.14,0-.39,0-.69.08-1.2.12-2.13-.15-2.39s-.82-.17-1.56-.12h-.37l-4.24-.1c-.11,0-.33,0-.58-.06-1-.12-1.8-.19-2,0a.49.49,0,0,0-.17.35.87.87,0,0,0,.82.69.78.78,0,0,1,.45.15,1.24,1.24,0,0,1,.33.79,8.66,8.66,0,0,1,0,2.22c0,.34,0,.66,0,1s0,.7,0,1c0,.69,0,1.4,0,2.09v.21c0,.66,0,1.29-.69,1.58a1.29,1.29,0,0,1-.55.12c-.36,0-.4.15-.41.77v.12l8.2.2.33,0a7,7,0,0,0,.71.06.76.76,0,0,0,.41-.08c.21-.14.21-.38.22-.64v-.22c0-.2.05-.44.09-.71a4.63,4.63,0,0,0,0-1.73A.56.56,0,0,1,54.32,63.94Zm-7.48-1.4c0-.35,0-.65,0-.89s0-.54.06-.88c.1-1.32.24-3.09-.46-4h0a2.34,2.34,0,0,1,.85,0,11.09,11.09,0,0,1,.1,2.42,4.52,4.52,0,0,0,0,.49c0,1.1.08,2.39,0,3.71,0,.15,0,.31,0,.47a4.11,4.11,0,0,0,.35,2.45l-1.46-.05C46.93,65.49,46.88,63.8,46.84,62.54Z" transform="translate(-0.6 -2.64)"/><path class="cls-1" d="M41.94,56.42a14.38,14.38,0,0,0-3.17-.09c-.45,0-.68.11-.74.29s.12.42.28.56a1.36,1.36,0,0,0,.66.36c.22.06.35.09.48.49a3.54,3.54,0,0,1,.09,1.27c0,.14,0,.28,0,.41l0,1,0,.92a5.28,5.28,0,0,1-.1.87c0,.23-.07.48-.09.72l-1-1.32c-.49-.65-1-1.31-1.49-2-.26-.37-.51-.75-.74-1.13-.86-1.38-1.67-2.69-3.55-2.75l-.27,0c-.73-.07-1.46-.1-1.75.23a.5.5,0,0,0-.08.48c.12.45.51.44.83.42s.5,0,.62.16a3.56,3.56,0,0,1,0,1.17c0,.17,0,.31,0,.39s0,.31,0,.52A3.59,3.59,0,0,0,32,61.12a3.17,3.17,0,0,0-.08,1.59,5.26,5.26,0,0,1,.05.85c0,.14,0,.29,0,.44,0,.88,0,1.88-.8,2.3a1.23,1.23,0,0,1-.25.08c-.31.07-.69.17-.78.43a.51.51,0,0,0,.12.48c.11.15.45.21,1,.21s1.07,0,1.82-.11l.5,0c.56,0,.8-.09.84-.27s-.25-.43-.69-.7l-.06,0c-.58-.37-.65-1-.69-1.79,0-.48,0-1,0-1.44s0-.91,0-1.37a14.36,14.36,0,0,1,.08-1.48c0-.28.06-.57.08-.86.13.15.3.3.46.45a3.49,3.49,0,0,1,.54.55L35,61.49l.83,1.08c.32.43.65.87,1,1.29a16.66,16.66,0,0,1,1.61,2.38c.36.67.94,1.32,1.44,1.22.3,0,.5-.36.59-.91A21.14,21.14,0,0,0,40.63,63c0-.6,0-1.22,0-1.8a8.3,8.3,0,0,0,0-1,3.43,3.43,0,0,1,.24-2c.23-.44.32-.45.5-.47a1.16,1.16,0,0,0,.58-.21c.16-.1.49-.42.44-.71C42.32,56.61,42.24,56.46,41.94,56.42ZM32.69,57c.67.1,1,.52,1.36,1.09.11.17.23.34.37.52L36.22,61c.3.39.64.79,1,1.17,1.14,1.34,2.32,2.71,2.42,4.3a7.06,7.06,0,0,1-1-1.31,9.92,9.92,0,0,0-.59-.9c-.61-.8-1.21-1.62-1.77-2.39-.39-.54-.81-1.08-1.22-1.6l-.37-.48a4.26,4.26,0,0,0-.52-.52,2.7,2.7,0,0,1-.55-.58,1.78,1.78,0,0,1-.14-.41c-.07-.27-.14-.55-.37-.64a.29.29,0,0,0-.16,0,.65.65,0,0,0-.25.06v-.1C32.7,57.36,32.7,57.19,32.69,57Zm-.49,9.43h-.13l.06,0,.06,0S32.2,66.43,32.2,66.46Z" transform="translate(-0.6 -2.64)"/><path class="cls-1" d="M26,57.39a5.63,5.63,0,0,0-4.21-1.3A6.51,6.51,0,0,0,16,61.68a5.25,5.25,0,0,0,1.38,4.07,6.86,6.86,0,0,0,4.94,2.17h0a5.68,5.68,0,0,0,4.24-2.25,5.52,5.52,0,0,0,1.3-4.54A5.31,5.31,0,0,0,26,57.39Zm-7.71,6.25a6.84,6.84,0,0,0,2.36,3.13,5.63,5.63,0,0,1-3-2.09,7.58,7.58,0,0,0-.35-1,4.11,4.11,0,0,1-.4-2A4.75,4.75,0,0,1,18,59,7.36,7.36,0,0,0,18.29,63.64ZM24.5,65.9c-.47.4-1.68,1.28-2.76.74a6.39,6.39,0,0,1-3.2-5.25c-.08-1.73.34-2.91,1.29-3.63a3.2,3.2,0,0,1,1.88-.61,2.25,2.25,0,0,1,1.53.53,3,3,0,0,1,.4.51,3.25,3.25,0,0,0,.36.47l.22.23a2.92,2.92,0,0,1,.7.93c.22.5.91,2,.7,2.79a7.78,7.78,0,0,0-.2,1.21A2.64,2.64,0,0,1,24.5,65.9Z" transform="translate(-0.6 -2.64)"/><path class="cls-1" d="M10.9,58.94c1-.84,2-1.85,2-3.09a6.21,6.21,0,0,0-1-2.94c-.72-.91-2.68-1.27-3.78-1.23l-.45,0c-.78,0-1.52.06-2.32,0h0c-.18,0-4.13.05-4.45.94-.07.2,0,.41.3.62a1.15,1.15,0,0,0,.92.13c.38-.06.61-.08.77.19a3.27,3.27,0,0,1-.05,1.69c0,.29-.1.54-.11.72a27.6,27.6,0,0,0,.2,3.73,17.9,17.9,0,0,1,0,5.37l0,.08a1.49,1.49,0,0,1-.54,1.07,1.37,1.37,0,0,1-.66.16,1.45,1.45,0,0,0-.69.15.86.86,0,0,0-.43.69.58.58,0,0,0,.26.48,2.83,2.83,0,0,0,1.42.08l.46,0,2.55,0,.93,0c.43,0,.87,0,1.3,0a8.18,8.18,0,0,0,1.57-.13c.95-.17,3.06-.93,3.61-1.91A3.44,3.44,0,0,0,13,65a4.46,4.46,0,0,1,.24-.73A2.65,2.65,0,0,0,13.51,62,4.34,4.34,0,0,0,10.9,58.94Zm-5,4.78c0-.5,0-1,0-1.47s0-1.16-.07-1.76,0-.68.22-.83l.18-.1A3.49,3.49,0,0,0,8,60.18a5.36,5.36,0,0,1,1.2.27c1.12.51,1.35,2.72.9,3.84a3.11,3.11,0,0,1-2.91,2.17H7.08c-.27,0-.9.07-1-.08a5.49,5.49,0,0,1-.17-2C5.88,64.07,5.88,63.85,5.87,63.72ZM6,54.35a3,3,0,0,1,0-1.06.78.78,0,0,1,.58-.2A5.29,5.29,0,0,1,9.33,54a2.78,2.78,0,0,1,.25,3.19c-.71,1-2.39,1.3-3.81,1.09a1.61,1.61,0,0,0,.09-1.71h0a1,1,0,0,1,0-1A2.07,2.07,0,0,0,6,55.12,3.33,3.33,0,0,0,6,54.35ZM3.93,62.88v-.21c-.07-1.22-.14-2.49-.19-3.74,0-.34,0-.69-.07-1a13.8,13.8,0,0,1,0-2.65l0-.22c.1-.76.23-1.71-.24-2.21a.87.87,0,0,0-.21-.17c.44,0,.9,0,1.36,0-.07,3.35,0,6.34.06,9.15,0,.38,0,.75,0,1.12,0,.53,0,1.08,0,1.64,0,.1,0,.28,0,.49a9.58,9.58,0,0,1,.1,1.68l-.68,0a3.72,3.72,0,0,1-1,0C4.11,65.86,4,64,3.93,62.88Z" transform="translate(-0.6 -2.64)"/></svg>