<svg id="Layer_1" data-name="Layer 1" xmlns="http://www.w3.org/2000/svg" viewBox="0 0 42.52 42.78"><defs><style>.cls-1,.cls-2{fill:#deaf5d;}.cls-2{fill-rule:evenodd;}</style></defs><title>Bone_Idol_Roundel</title><path class="cls-1" d="M24.16,45.48a33.7,33.7,0,0,1-5.28-.82,15.31,15.31,0,0,1-2.82-.78c-.32-.11-1.74-.62-1.34-1.05.42.2.76.5,1.19.68a15.73,15.73,0,0,0,2.08.67,37.13,37.13,0,0,0,3.75.75c.61.09,1.23.18,1.84.23a9.73,9.73,0,0,0,2.22-.23c.57-.09,1.15-.08,1.72-.14a12.48,12.48,0,0,0,2.07-.5A20.69,20.69,0,0,0,33.26,43a15,15,0,0,0,2.54-1.54,24.1,24.1,0,0,0,5.1-4.72c.33-.46.58-1,.86-1.45s.78-1.06,1.1-1.63A13.07,13.07,0,0,0,44,30.77c.36-1.23.58-2.49.82-3.75A21.71,21.71,0,0,0,45,22.83a20,20,0,0,0-.49-3.76c-.25-1.21-.88-2.25-1.23-3.43a11.08,11.08,0,0,0-1.58-2.93A15.45,15.45,0,0,0,39.51,10a25.5,25.5,0,0,0-3.17-3,20.5,20.5,0,0,0-3.73-2A17.14,17.14,0,0,0,24.8,3.23C24.6,2.59,26.33,3,26.69,3a15,15,0,0,1,3.4.66,27.14,27.14,0,0,1,6.2,3,13.59,13.59,0,0,1,2.52,2.15c.74.86,1.63,1.6,2.3,2.52.54.74,1,1.53,1.55,2.28a16.88,16.88,0,0,1,1.28,3c1.94,4.29,1.68,9.44.45,13.89a18.06,18.06,0,0,1-.88,2.5,28.89,28.89,0,0,1-1.73,2.88,16.46,16.46,0,0,1-4.67,4.95,19.37,19.37,0,0,1-5.48,3.25c-.6.19-1.22.28-1.82.45a14.85,14.85,0,0,1-1.88.5c-.6.1-1.21.09-1.82.16A18.72,18.72,0,0,1,24.16,45.48Z" transform="translate(-2.83 -2.71)"/><path class="cls-1" d="M14.55,43.17a12.09,12.09,0,0,1-2.63-1.7c-.76-.67-1.67-1.11-2.39-1.8A23.45,23.45,0,0,1,6.15,35.2,20.79,20.79,0,0,1,2.86,25.05,17.12,17.12,0,0,1,3,22.1c.12-1,.44-2,.57-3a14.61,14.61,0,0,1,2.06-5.36,24,24,0,0,1,3.17-4.2,26.83,26.83,0,0,1,4.41-3.75,12.44,12.44,0,0,1,3-1.42c1-.34,2-.8,3-1a24.22,24.22,0,0,1,2.81-.47,5.32,5.32,0,0,1,2.6,0c-.07.35-.22.21-.48.2a12.89,12.89,0,0,0-1.39,0c-.74.05-1.49.17-2.23.29a14,14,0,0,0-2.92.8c-.92.36-1.87.61-2.77,1A21.05,21.05,0,0,0,10,8.75a23.81,23.81,0,0,0-3.36,3.87A18.82,18.82,0,0,0,4.05,18c-.28.92-.28,1.89-.52,2.83a12.68,12.68,0,0,0-.4,3A19.26,19.26,0,0,0,5.94,34.32a27.28,27.28,0,0,0,3.79,5.14c.77.73,1.75,1.24,2.55,1.94a9.28,9.28,0,0,0,1.43,1C14,42.55,14.91,42.78,14.55,43.17Z" transform="translate(-2.83 -2.71)"/><path class="cls-1" d="M29.58,9.53s0,0,0,0Z" transform="translate(-2.83 -2.71)"/><path class="cls-1" d="M14.38,30.19c0-.48-1.18-1-1.06-.48,0,.15.28.14.32.35s-.1.47-.32.45-.42-.29-.75-.24a3.41,3.41,0,0,0-1,.55,20.31,20.31,0,0,1-2.07.95A3.07,3.07,0,0,0,9,32c-.09.05-.21.06-.27.15a.1.1,0,0,0,0,.15c.1.07.07.15-.07.24-.06.27-.23.79-.55.32-.19-.28-.06-.64-.22-.92s-.36-.27-.5-.47-.23-.53.06-.59.54.21.74.2c-.38.32.53.13.57.12.51-.15,1-.28,1.51-.48a8.38,8.38,0,0,0,1.51-.8c.11-.07.95-.71.46-.68.35-.36.18-.44.27-.8.2,0,.52.42.63.55s.11.4.36.23.11-.55,0-.72c-.14-.41-.74-.88-1.18-.58-.29.19-.3.65-.42,1-.34.85-1.44,1.15-2.23,1.48a4.19,4.19,0,0,1-1.14.33,1.91,1.91,0,0,1-.63.08c-.19,0-.35-.26-.55-.25-.59,0-.47.73-.26,1.05a3.81,3.81,0,0,1,.62,1.16c.1.32.29.81.72.76s.34-.71.58-1a3.65,3.65,0,0,1,1.41-.89,10.1,10.1,0,0,1,1.65-.73c.57-.16,2.3.62,2.21-.65C14.36,29.79,14.41,30.61,14.38,30.19Z" transform="translate(-2.83 -2.71)"/><path class="cls-1" d="M21.64,37.16c-.32-2-2.67-3-4.31-3.62a2,2,0,0,0-.59-.12c-.38,0-.2.09,0,.31.55.81.06,1.26-.29,2.06s-.62,1.53-1,2.26c-.18.33-.3.94-.73.88-.24,0-.93-.6-.54,0,.15.25.28.19.46.3.44.27.9.53,1.36.77s1,.41,1.48.63a2.69,2.69,0,0,0,.86.35,2.56,2.56,0,0,0,2.65-1.1,3.9,3.9,0,0,0,.53-1.13,2.53,2.53,0,0,0,.12-.77A6.15,6.15,0,0,0,21.64,37.16Zm-6.41,2.09a13.19,13.19,0,0,1,1.22-2.51,10.32,10.32,0,0,0,1-2.73,1,1,0,0,0,.58.25,4.14,4.14,0,0,0-.66,1.29c-.21.5-.39,1-.58,1.53a9.56,9.56,0,0,1-.62,1.34l-.36.64C15.59,39.44,15.62,39.48,15.23,39.25Zm5.16-1.86a3.47,3.47,0,0,1-.83,2A2.57,2.57,0,0,1,17,40.1c-.24-.07-.86-.31-.88-.55a2.82,2.82,0,0,1,.31-.56c.14-.28.26-.57.39-.86.53-1.22,1.19-2.38,1.71-3.61.4.41.88.57,1.23,1a2.57,2.57,0,0,1,.64,1.84C20.38,37.45,20.41,37.25,20.39,37.39Z" transform="translate(-2.83 -2.71)"/><path class="cls-1" d="M33.05,37.69a3.32,3.32,0,0,0-3.27-3.37,3.63,3.63,0,0,0-3.43,2.58,3.33,3.33,0,0,0,3.14,4.31A3.54,3.54,0,0,0,33.05,37.69Zm-5.94,1.84a2.78,2.78,0,0,1,0-3.42,4.38,4.38,0,0,0,2.46,4.77,3.37,3.37,0,0,1-2.5-1.35Zm4.75-.8a1.75,1.75,0,0,1-2,1.8c-1.62-.25-2.44-2.83-2.31-4.2a1.69,1.69,0,0,1,1.09-1.4,1.82,1.82,0,0,1,1.84.48,3.82,3.82,0,0,1,1.42,3.32C31.85,38.8,31.88,38.55,31.86,38.73Z" transform="translate(-2.83 -2.71)"/><path class="cls-1" d="M41.59,29.33c-.09-.32-.27-.2-.5-.3a3.13,3.13,0,0,1-.61-.44c-.19-.15-.85-.64-.85-.07,0,.25.76.84.87,1.17a1.67,1.67,0,0,1-.73,1.81c-.57.32-1.19-.14-1.69-.44A20.64,20.64,0,0,0,36,30c-.52-.25-1.21-.53-1.08-1.22.06-.27.32-.4-.1-.55A14.89,14.89,0,0,0,34,29.62a6,6,0,0,1-.43.88c-.07.11-.61.7-.21.71.21,0,.15-.14.29-.24a1,1,0,0,1,.4-.18,1.46,1.46,0,0,1,1.15.3c.62.37,1.25.73,1.86,1.12s1.75.69,1.58,1.56c0,.17-.27.35,0,.47s.33-.1.44-.23c.27-.3.29-.7.5-1s.42-.58.6-.88a3.11,3.11,0,0,0,.26-.76,4.65,4.65,0,0,1,.6-.85c.18-.28.65-.86.57-1.17S41.62,29.46,41.59,29.33Zm-1.81,2.91c-.16.26-.4.5-.54.76s-.14.57-.35.81c.3-.82-.47-1.06-1-1.38s-.91-.6-1.38-.87-1-.6-1.44-.84a1.77,1.77,0,0,0-1.23-.15,9.26,9.26,0,0,1,.51-1.05,26.2,26.2,0,0,0,3,1.77,9.16,9.16,0,0,0,1.34.64C39,32,39.68,32.32,39.78,32.24Z" transform="translate(-2.83 -2.71)"/><path class="cls-1" d="M33.52,16.7l1,2.43.72,1.75c.08.2.25.94.43,1.05s.79-.24,1-.32,1.34-.31.86-.66c-.16-.12-.76.09-1,.05a1.57,1.57,0,0,1-1.15-.94c-.55-1.08-.09-1.66.92-2.09a4.36,4.36,0,0,1,.81-.34c.12,0,.17-.1.26-.05s.13.44.18.57.13.1.14.13c.13.39,0,.39-.16.67s-.23.13-.07.37c.39-.19.83-.31,1.23-.47.1,0,.57-.13.63-.22s-.15-.19-.21-.2c-.24-.06-.51.08-.73-.14a1.77,1.77,0,0,1-.21-.51c-.18-.45-.3-.46.14-.64l1.37-.57c.46-.18.38-.06.57.41a2.25,2.25,0,0,1,.28,1.69c-.19.44-.94.62-.61,1.08.43-.2.88-.38,1.29-.61s.3-.1.18-.44c-.37-1.07-.87-2.11-1.3-3.15a4.39,4.39,0,0,0-.49-1.2c-.14-.13,0-.09-.16-.08-.39,0-.09.36-.09.6,0,.83-2.14,1.36-2.78,1.62l-1.21.5c-.41.16-.85.36-1.22,0S34,16.44,33.52,16.7Zm.73.71c.72.29,2.14-.58,2.8-.85s2.38-.68,2.51-1.54l.34.82a4.28,4.28,0,0,0-1.31.63c-.52.26-1,.51-1.56.75-.73.32-2,.55-2.38,1.37l-.5-1.23Z" transform="translate(-2.83 -2.71)"/><path class="cls-1" d="M26.83,12.88c.19.11.63.32.54-.08,0-.1-.2-.14-.25-.22-.34-.47-.23-.84-.05-1.39s.46-1.17.65-1.77c.06-.19.78-1.65.57-1.7h.1a4.72,4.72,0,0,0,.51,2c.24.78.5,1.55.73,2.33A8.92,8.92,0,0,1,30,13.11c.05.35,0,.79.33,1.06.53.45.74-.76.91-1.17.26-.66.48-1.34.78-2s.28-1.5.91-2c.26-.19,1,.15,1-.25s-.76-.43-1-.52S31.8,7.71,31.63,8s.26.4.35.5.26.14.24.48a1.89,1.89,0,0,1-.11.47c-.16.5-.37,1-.56,1.46A5.82,5.82,0,0,0,31,12.3a4.12,4.12,0,0,0-.29-.88c-.1-.34-.13-.7-.22-1s-.3-.75-.4-1.16a9.35,9.35,0,0,0-.47-1.8,1.45,1.45,0,0,0-.86-.82,4.42,4.42,0,0,0-1.09-.43.28.28,0,0,0-.26.23c-.05.28.15.16.31.29s.34.14.35.41A6.4,6.4,0,0,1,27.41,9c-.23.67-.43,1.32-.71,2-.19.44-.24.77-.67,1-.27.13-.47,0-.7.1-.81.31,1.33.79,1.5.88S26.78,12.86,26.83,12.88Zm1.58-6c0-.1.38.06.46.15a2.07,2.07,0,0,1,.21.65l.83,2.6c.23.71.46,1.41.68,2.12A1.85,1.85,0,0,1,30.5,14a8.2,8.2,0,0,1-.57-1.86c-.17-.58-.35-1.15-.52-1.72a14.12,14.12,0,0,0-.53-1.71,2.07,2.07,0,0,1-.26-.83c0-.25,0-.49-.39-.39ZM26.48,12a1.32,1.32,0,0,0-.1.39,2.7,2.7,0,0,1-.4-.14Z" transform="translate(-2.83 -2.71)"/><path class="cls-1" d="M21.66,9.46a3.23,3.23,0,0,0-4.44-2.37,3.85,3.85,0,0,0-2.37,3.45c0,2.31,2.16,3.5,4.25,3.14a3.5,3.5,0,0,0,2.56-4.22C21.61,9.27,21.67,9.51,21.66,9.46Zm-3.38,4A2.94,2.94,0,0,1,15.61,9a4,4,0,0,0,1.06,3,4.31,4.31,0,0,0,2.25,1.34A3.47,3.47,0,0,1,18.28,13.43Zm2.35-1.37c-.29.49-.8,1.13-1.44,1.11a3.53,3.53,0,0,1-1.73-.74c-1.07-.85-2.14-2.64-1.37-4A1.85,1.85,0,0,1,18,7.51c.35.06.5.29.8.44a2.67,2.67,0,0,1,.85.52c.79.84,1.67,2.46,1,3.59Z" transform="translate(-2.83 -2.71)"/><path class="cls-1" d="M7.18,18.1c.56.25,1.06.6,1.64.83l1.65.68a3.54,3.54,0,0,1,1.38.77c.27.35-.27,1.09.3,1.13.42-.82.85-1.65,1.26-2.48a2.78,2.78,0,0,0,.33-1.32,1.44,1.44,0,0,0-.53-1.33c-.31-.32-.38-.53-.88-.64a1.76,1.76,0,0,0-1.66.49c-.24-1-.58-1.51-1.62-1.5a1.21,1.21,0,0,0-1.12.51,2.6,2.6,0,0,0-.55,1c-.24.64-.68,1.2-.86,1.87,0,.19-.18.73.15.67S6.88,18.16,7.18,18.1ZM10.05,18a7,7,0,0,0,1-1.15c1.24,0,2.5.81,1.83,2.18-.19.39-.18.37-.61.2s-.91-.42-1.36-.61S9.81,18.43,10.05,18ZM7.63,16.92a1.23,1.23,0,0,1,1.65-1.1c.92.46.79,1.47.23,2.22-.32-.42-.58-.29-1-.51-.08-.05-.91-.59-.91-.61Zm-.8,1.14a1.12,1.12,0,0,0-.11.25,3.12,3.12,0,0,1,.42-1,58.74,58.74,0,0,0,5.51,2.47,5.49,5.49,0,0,1-.42.84c-.13-.88-1.87-1.27-2.55-1.56-.47-.21-1-.37-1.41-.61s-1-.92-1.44-.35C6.79,18.11,6.92,17.92,6.83,18.06Z" transform="translate(-2.83 -2.71)"/><path class="cls-2" d="M9.79,24.3A.9.9,0,0,1,8,24.3C8,23.29,9.79,23.2,9.79,24.3Z" transform="translate(-2.83 -2.71)"/><path class="cls-2" d="M39.19,25.13c-.48-.06-1.06-.05-1.1-.67s.66-1,1.24-.86A.77.77,0,1,1,39.19,25.13Z" transform="translate(-2.83 -2.71)"/><path class="cls-1" d="M29.66,9.53h0S29.62,9.55,29.66,9.53Z" transform="translate(-2.83 -2.71)"/><path class="cls-1" d="M24.07,44.46a22.92,22.92,0,0,1-3.19-.37,13.17,13.17,0,0,1-3.23-.67,27.39,27.39,0,0,1-5.77-3,10.87,10.87,0,0,1-2.36-2.23c-.69-.89-1.49-1.65-2.14-2.57A22.76,22.76,0,0,1,4.66,30.4a20.38,20.38,0,0,1-.63-3A15.27,15.27,0,0,1,3.69,24a20.5,20.5,0,0,1,.38-3.22,12.18,12.18,0,0,1,.69-3c.45-1,.78-2,1.28-3s1-1.74,1.51-2.57a15.42,15.42,0,0,1,1.78-2c.62-.68,1.28-1.34,2-2A19.08,19.08,0,0,1,22.63,3.86a16.49,16.49,0,0,1,6.14.5,28.31,28.31,0,0,1,2.76.82,20.19,20.19,0,0,1,2.64,1.4,22.88,22.88,0,0,1,5,4.06,25,25,0,0,1,3.38,5.07,15.37,15.37,0,0,1,1.66,6.1A18.4,18.4,0,0,1,44.08,28a21.35,21.35,0,0,1-5.63,10.39,20.52,20.52,0,0,1-5.17,3.95c-.91.46-1.94.68-2.88,1.1a9,9,0,0,1-3.13.84C26.21,44.3,25.12,44.46,24.07,44.46Zm1.3-40.25a26.9,26.9,0,0,0-6,.59A18.72,18.72,0,0,0,14.3,6.71a18.15,18.15,0,0,0-4.65,3.8A15.86,15.86,0,0,0,8,12.27c-.54.78-1,1.66-1.48,2.48s-.81,1.95-1.26,2.9a11.5,11.5,0,0,0-.78,3.05,16.74,16.74,0,0,0-.14,6.23A22.8,22.8,0,0,0,5,30.12a20.63,20.63,0,0,0,1,2.37,27.73,27.73,0,0,0,1.55,2.7c.66,1,1.48,1.75,2.2,2.66a15.11,15.11,0,0,0,5,3.83c.88.47,1.8.82,2.71,1.21a13,13,0,0,0,3.21.74c1,.16,2.09.33,3.12.4a8.93,8.93,0,0,0,1.64-.13c.61-.08,1.2,0,1.8-.08a8.94,8.94,0,0,0,3-.83c1-.47,2.17-.71,3.17-1.26a21.28,21.28,0,0,0,8.27-8.58,20.22,20.22,0,0,0,2-5.67,18.65,18.65,0,0,0-.06-6.28A19.08,19.08,0,0,0,43,17.87,20.47,20.47,0,0,0,41.68,15,18.94,18.94,0,0,0,37.4,9.47a24.65,24.65,0,0,0-5.71-3.76,22.79,22.79,0,0,0-3-1A11.45,11.45,0,0,0,25.37,4.21Z" transform="translate(-2.83 -2.71)"/><path class="cls-1" d="M24.07,34.44a10.8,10.8,0,0,1-6.27-2.09,11.38,11.38,0,0,1-3.55-5.05,9.57,9.57,0,0,1,.12-6.67,10.18,10.18,0,0,1,3.8-5A10.48,10.48,0,0,1,30.54,16c3.51,2.59,4.7,7.62,3.29,11.65A10.5,10.5,0,0,1,24.07,34.44Zm0-20.23a9.81,9.81,0,0,0-9.29,6.67,9,9,0,0,0,0,6.45,10.8,10.8,0,0,0,3.47,4.76,10.27,10.27,0,0,0,11,.49,9.9,9.9,0,0,0,4.61-9.78,10.1,10.1,0,0,0-3.27-6.16A9.78,9.78,0,0,0,24.07,14.21Z" transform="translate(-2.83 -2.71)"/><path class="cls-1" d="M24.07,33.69A9.6,9.6,0,0,1,19,16a9.52,9.52,0,0,1,10.52.27,9.63,9.63,0,0,1,3.69,11A9.74,9.74,0,0,1,24.07,33.69Zm0-19a9.47,9.47,0,0,0-9.06,7,9.27,9.27,0,0,0,4.24,10.38,9.56,9.56,0,0,0,10.86-.83A9.63,9.63,0,0,0,33,21.36,9.43,9.43,0,0,0,24.07,14.71Z" transform="translate(-2.83 -2.71)"/><path class="cls-1" d="M19,25.46c0-.12,0-.19-.1-.25A.23.23,0,0,0,19,25.46Z" transform="translate(-2.83 -2.71)"/><path class="cls-1" d="M23.07,18.74c-.17,0-.23.38,0,.39s.23-.21.31-.28h-.12c-.08-.11.08-.25-.1-.31C23.14,18.57,23.05,18.74,23.07,18.74Z" transform="translate(-2.83 -2.71)"/><path class="cls-1" d="M24.88,19.74s0,.2.15.16.26-.44,0-.41S25,19.71,24.88,19.74Z" transform="translate(-2.83 -2.71)"/><path class="cls-1" d="M23.2,29.08c0-.23-.23-.35-.4-.37,0,.05.1.14.09.18a.06.06,0,0,0-.08,0,1,1,0,0,1-.09-.21C22,29,23.12,29.88,23.2,29.08Zm-.14,0s-.06.05-.09,0V29l.09,0Zm-.22.17c0,.07-.1,0,0,0S22.83,29.21,22.84,29.22Z" transform="translate(-2.83 -2.71)"/><path class="cls-1" d="M25,29.33c.31.33.73-.22.45-.51S24.72,29,25,29.33Z" transform="translate(-2.83 -2.71)"/><path class="cls-1" d="M20.19,29.34c.79.44.63-1.09,0-.56-.19.15-.2.31,0,.3,0,0-.1,0-.11-.07a.41.41,0,0,1,.11-.07A1.33,1.33,0,0,1,20.19,29.34Z" transform="translate(-2.83 -2.71)"/><path class="cls-1" d="M27.63,28.73a.35.35,0,1,0,.1.68A.35.35,0,0,0,27.63,28.73Z" transform="translate(-2.83 -2.71)"/><path class="cls-1" d="M29,29.91c.49-.08,0-1.73,0-2-.14-1.13.24-2.28.1-3.41A2.7,2.7,0,0,0,25,22.39a1.18,1.18,0,0,0-.38-1.72c-.17-.09-.4-.08-.5-.26a2.1,2.1,0,0,1,0-.56c.06-.06.28,0,.35,0-.21-.49.12-.05.19,0a.1.1,0,0,0,0-.12c.07-.22,0-.29-.23-.21-.18-.11-.23,0-.35-.19a1.92,1.92,0,0,1,0-.83c.09.12.63.74.82.58s-.31-.75-.31-1c0-.45.48-.4.77-.69.53-.54-.79-.4-1-.24,0,.09.17.2,0,.21-.16-.21-.1-1.76-.58-1.13-.16.21,0,.64-.26.81s-.6,0-.83,0c-1,0,.28.52.42.74s0,.32.05.55c0,.05.22,0,.23.09.06.26-.23.14-.05.4.15-.14.37-.14.46-.35,0,0,0,.56,0,.63,0,.35.11.38-.23.46-.11,0-1-.2-.81.2,0,.09.13.1.2.13l.54,0a.5.5,0,0,0-.05-.13s.35.18.28.09c.09.11.1.2,0,.42.1.15.08.23-.05.23a.44.44,0,0,0-.24.11c-.14.12-.21.31-.31.14-.18.11-.57.59-.32.69,0,0-.49.73,0,.51a.92.92,0,0,0,.14.56.49.49,0,0,0-.25-.12c.08.26,0,.21-.11.05s-.12-.29-.41-.38a2.72,2.72,0,0,0-1.67.14,3.06,3.06,0,0,0-1.7,3c.11-.11.32-.07.4-.17s0-.44,0-.44a4.22,4.22,0,0,1,.51-1.23,2,2,0,0,1,3.63.47,13.05,13.05,0,0,1,.43,3.9c0,.21.06.4-.11.51s-.85,0-1,0a22.94,22.94,0,0,1-2.75,0c0,.23-.58,0-.66-.18s.05-.95,0-1.31c0-.17,0-1.29-.15-1.4s-.28,1-.28,1.12a6.78,6.78,0,0,1,0,1.91c-.1.38-.24,1.43.15,1.62a1.55,1.55,0,0,0,.71,0,7,7,0,0,1,1,0c.35,0,.69,0,1,0s.78-.14,1,0c0-.47.2-.11.33-.1a2.88,2.88,0,0,0,.65.07.29.29,0,0,1,0-.36c-.5,0-1,0-1.49,0s-.73.06-1.07.07-.59-.1-.89-.09a3.08,3.08,0,0,1-.94.1c-.3-.12-.28-.31-.2-.66s.22-.39.64-.38c1.17,0,2.37,0,3.56,0s2.51,0,3.76,0c.26,0,1.47-.21,1.65,0a2.12,2.12,0,0,1-.06.79c-.1.37,0,.22-.55.2s-1.18,0-1.77,0-1.2,0-1.81,0c-.39,0-.62-.1-.66.34.88.06,1.76,0,2.64,0a11.71,11.71,0,0,0,2.44,0ZM28.68,27c-.1.27.15.89,0,1.11s-.42.09-.62.09a7,7,0,0,0-2.09,0,4.22,4.22,0,0,0-1.38-.06c-.15,0-.36.16-.45,0s.08-.59.09-.71a13,13,0,0,1,.1-2.86,2.82,2.82,0,0,1,1.23-2.05c.8-.49,1.67,0,2.37.29a4.18,4.18,0,0,1,.87,2.74c0,.3-.05.54-.07.75a2.24,2.24,0,0,0,0,.24,4.68,4.68,0,0,0,.2.5s-.06,0-.09,0a1.19,1.19,0,0,1-.08-.2Zm-5.84-5.32c0,.08,0,0,0,.09a.11.11,0,0,0-.08,0c0-.05,0-.09.06-.09Zm.27-.14a.88.88,0,0,1,1.7-.08,1,1,0,0,1-.1.9s-.4.08-.13.17a.05.05,0,0,0,0,0h-.08s-.86,0-1.06-.17a1,1,0,0,1-.35-.68.31.31,0,0,0-.09-.15s0,0,0-.07Zm1.34,1.27.11-.08c0,.05,0,.1,0,.15l-.13-.07S24.46,22.8,24.45,22.8Zm2.09-.7c.06,0,.15.13.13.19a.07.07,0,0,0-.08,0S26.45,22.1,26.54,22.1Zm2.38,4.13c0-.1.09,0,0,0Zm.07-.37c-.11,0-.09,0-.15-.17C29,25.61,29,25.86,29,25.86Zm-4.88-8.8c.06,0,.15.13.13.19a.07.07,0,0,0-.08,0S24,17.06,24.11,17.06Zm-.93,5.59a1.4,1.4,0,0,0,1.16.31s.1-.17.22-.08,0,.26-.11.29c.14.25-.08.11-.12.16a4.07,4.07,0,0,0-.36.94,5,5,0,0,0-.87-1.68Zm1.48-4a1.43,1.43,0,0,1-.08-.22c.09-.06.19.11.17.18s-.06,0-.09,0S24.67,18.66,24.66,18.68Zm.25.15c-.08.09-.09,0-.08-.06S25,18.78,24.91,18.83Zm-1.32-1c-.06.07-.06,0-.07-.06S23.62,17.78,23.59,17.83Zm-.18-.13s-.06,0-.09,0v-.07l.1,0S23.39,17.68,23.41,17.7Zm-.06.27s0,0,.08,0,0,0-.1.05S23.32,17.94,23.35,18Zm-.2-.39-.09-.22c.1-.06.19.11.17.18a.06.06,0,0,0-.08,0S23.16,17.55,23.15,17.58Zm.19.72c-.08,0-.05-.06.07-.1l0,.16Zm0,1.35s-.06.05-.09,0v-.07l.09,0S23.34,19.63,23.36,19.65Zm-.94,2.61c.06,0,.14.14.13.2s-.06,0-.09,0S22.32,22.26,22.42,22.26Zm-3.37,2.09c.07,0,.1,0,.09,0S19.06,24.35,19.05,24.35Zm0,.3c0-.07.06,0,.09,0l0,0S19,24.75,19.07,24.65Zm0,.33c-.07,0-.05-.07.08-.1a.77.77,0,0,0,0,.15Zm2.21,3.31c0-.09.09,0,0,0Zm.2.08c0-.07.06,0,.09,0s0,0,0,0S21.42,28.47,21.48,28.37Zm-1.31.06s-.06.05-.09,0v-.06l.09,0S20.15,28.42,20.17,28.43Zm.68,1.33c0-.1.08,0,0,0Zm.19.07c0-.06.07,0,.1,0a.05.05,0,0,0,0,0S21,29.93,21,29.83Zm2-.28a.44.44,0,0,0,0,.16L23,29.63Zm-1.83.09c.06,0,.07,0,.05.05S21.24,29.61,21.24,29.64Zm-.89-1.08c-.05,0,0,.07-.06,0S20.4,28.52,20.35,28.56Z" transform="translate(-2.83 -2.71)"/></svg>